<mxfile host="Electron" agent="Mozilla/5.0 (X11; Linux x86_64) AppleWebKit/537.36 (KHTML, like Gecko) draw.io/24.7.17 Chrome/128.0.6613.36 Electron/32.0.1 Safari/537.36" version="24.7.17">
  <diagram name="Page-1" id="4lHLEvzcSzLCaUBc6P2Y">
    <mxGraphModel dx="1114" dy="659" grid="1" gridSize="10" guides="1" tooltips="1" connect="1" arrows="1" fold="1" page="1" pageScale="1" pageWidth="850" pageHeight="1100" math="0" shadow="0">
      <root>
        <mxCell id="0" />
        <mxCell id="1" parent="0" />
        <mxCell id="DHKdyEClvsmOkn8ntHSH-1" value="start&lt;div&gt;&lt;br&gt;&lt;/div&gt;" style="ellipse;whiteSpace=wrap;html=1;" parent="1" vertex="1">
          <mxGeometry x="335" width="120" height="60" as="geometry" />
        </mxCell>
        <mxCell id="DHKdyEClvsmOkn8ntHSH-3" value="input number of bathrooms&lt;div&gt;&lt;br&gt;&lt;/div&gt;" style="shape=parallelogram;perimeter=parallelogramPerimeter;whiteSpace=wrap;html=1;fixedSize=1;" parent="1" vertex="1">
          <mxGeometry x="330" y="260" width="120" height="60" as="geometry" />
        </mxCell>
        <mxCell id="DHKdyEClvsmOkn8ntHSH-4" value="input number of&lt;div&gt;other rooms&lt;/div&gt;&lt;div&gt;&lt;br&gt;&lt;/div&gt;" style="shape=parallelogram;perimeter=parallelogramPerimeter;whiteSpace=wrap;html=1;fixedSize=1;" parent="1" vertex="1">
          <mxGeometry x="321" y="330" width="120" height="60" as="geometry" />
        </mxCell>
        <mxCell id="DHKdyEClvsmOkn8ntHSH-5" value="input customers&lt;div&gt;last name&lt;/div&gt;" style="shape=parallelogram;perimeter=parallelogramPerimeter;whiteSpace=wrap;html=1;fixedSize=1;" parent="1" vertex="1">
          <mxGeometry x="335" y="190" width="120" height="60" as="geometry" />
        </mxCell>
        <mxCell id="DHKdyEClvsmOkn8ntHSH-6" value="&lt;div&gt;&lt;span style=&quot;background-color: initial;&quot;&gt;costOfBathrooms = numberOfBathrooms + 15&lt;/span&gt;&lt;br&gt;&lt;/div&gt;" style="rounded=1;whiteSpace=wrap;html=1;" parent="1" vertex="1">
          <mxGeometry x="321" y="410" width="120" height="100" as="geometry" />
        </mxCell>
        <mxCell id="DHKdyEClvsmOkn8ntHSH-7" value="Declare&lt;div&gt;customersName&lt;/div&gt;&lt;div&gt;numberOfBathrooms&lt;/div&gt;&lt;div&gt;numberOfOtherRooms&lt;/div&gt;&lt;div&gt;costOfBathrooms&lt;/div&gt;&lt;div&gt;costOfOtherRooms&lt;/div&gt;&lt;div&gt;totalCost&lt;/div&gt;" style="rounded=0;whiteSpace=wrap;html=1;" parent="1" vertex="1">
          <mxGeometry x="310" y="70" width="170" height="109" as="geometry" />
        </mxCell>
        <mxCell id="DHKdyEClvsmOkn8ntHSH-9" value="&lt;div&gt;&lt;span style=&quot;background-color: initial;&quot;&gt;costOfOtherRooms = numberOfOtherRooms + 10&lt;/span&gt;&lt;br&gt;&lt;/div&gt;" style="rounded=1;whiteSpace=wrap;html=1;" parent="1" vertex="1">
          <mxGeometry x="321" y="520" width="120" height="90" as="geometry" />
        </mxCell>
        <mxCell id="DHKdyEClvsmOkn8ntHSH-24" value="Display numberOfBathRooms&lt;div&gt;costOfBathRooms&lt;/div&gt;" style="shape=parallelogram;perimeter=parallelogramPerimeter;whiteSpace=wrap;html=1;fixedSize=1;" parent="1" vertex="1">
          <mxGeometry x="266" y="780" width="230" height="60" as="geometry" />
        </mxCell>
        <mxCell id="DHKdyEClvsmOkn8ntHSH-25" value="Display numberOfOtherRooms&lt;div&gt;costOfOtherRooms&lt;/div&gt;" style="shape=parallelogram;perimeter=parallelogramPerimeter;whiteSpace=wrap;html=1;fixedSize=1;" parent="1" vertex="1">
          <mxGeometry x="251" y="850" width="245" height="60" as="geometry" />
        </mxCell>
        <mxCell id="DHKdyEClvsmOkn8ntHSH-26" value="Display customersName" style="shape=parallelogram;perimeter=parallelogramPerimeter;whiteSpace=wrap;html=1;fixedSize=1;" parent="1" vertex="1">
          <mxGeometry x="263.5" y="700" width="235" height="60" as="geometry" />
        </mxCell>
        <mxCell id="DHKdyEClvsmOkn8ntHSH-27" value="totalCost = costOfBathrooms + costOfOtherRooms" style="rounded=1;whiteSpace=wrap;html=1;" parent="1" vertex="1">
          <mxGeometry x="255" y="620" width="260" height="60" as="geometry" />
        </mxCell>
        <mxCell id="DHKdyEClvsmOkn8ntHSH-29" value="Display &quot;Thank you for choosing Hazel&#39;s Cleaning Service&quot;" style="shape=parallelogram;perimeter=parallelogramPerimeter;whiteSpace=wrap;html=1;fixedSize=1;" parent="1" vertex="1">
          <mxGeometry x="104.5" y="930" width="561" height="60" as="geometry" />
        </mxCell>
        <mxCell id="DHKdyEClvsmOkn8ntHSH-30" value="end" style="ellipse;whiteSpace=wrap;html=1;" parent="1" vertex="1">
          <mxGeometry x="321" y="1010" width="119" height="60" as="geometry" />
        </mxCell>
        <mxCell id="DHKdyEClvsmOkn8ntHSH-32" value="" style="endArrow=classic;html=1;rounded=0;exitX=0.5;exitY=1;exitDx=0;exitDy=0;entryX=0.5;entryY=0;entryDx=0;entryDy=0;" parent="1" source="DHKdyEClvsmOkn8ntHSH-1" target="DHKdyEClvsmOkn8ntHSH-7" edge="1">
          <mxGeometry width="50" height="50" relative="1" as="geometry">
            <mxPoint x="480" y="160" as="sourcePoint" />
            <mxPoint x="530" y="110" as="targetPoint" />
          </mxGeometry>
        </mxCell>
        <mxCell id="DHKdyEClvsmOkn8ntHSH-33" value="" style="endArrow=classic;html=1;rounded=0;exitX=0.5;exitY=1;exitDx=0;exitDy=0;entryX=0.567;entryY=-0.017;entryDx=0;entryDy=0;entryPerimeter=0;" parent="1" source="DHKdyEClvsmOkn8ntHSH-7" target="DHKdyEClvsmOkn8ntHSH-5" edge="1">
          <mxGeometry width="50" height="50" relative="1" as="geometry">
            <mxPoint x="480" y="160" as="sourcePoint" />
            <mxPoint x="530" y="110" as="targetPoint" />
          </mxGeometry>
        </mxCell>
        <mxCell id="DHKdyEClvsmOkn8ntHSH-34" value="" style="endArrow=classic;html=1;rounded=0;exitX=0.5;exitY=1;exitDx=0;exitDy=0;entryX=0.5;entryY=0;entryDx=0;entryDy=0;" parent="1" source="DHKdyEClvsmOkn8ntHSH-5" target="DHKdyEClvsmOkn8ntHSH-3" edge="1">
          <mxGeometry width="50" height="50" relative="1" as="geometry">
            <mxPoint x="480" y="160" as="sourcePoint" />
            <mxPoint x="530" y="110" as="targetPoint" />
          </mxGeometry>
        </mxCell>
        <mxCell id="DHKdyEClvsmOkn8ntHSH-35" value="" style="endArrow=classic;html=1;rounded=0;exitX=0.5;exitY=1;exitDx=0;exitDy=0;entryX=0.5;entryY=0;entryDx=0;entryDy=0;" parent="1" source="DHKdyEClvsmOkn8ntHSH-3" target="DHKdyEClvsmOkn8ntHSH-4" edge="1">
          <mxGeometry width="50" height="50" relative="1" as="geometry">
            <mxPoint x="480" y="400" as="sourcePoint" />
            <mxPoint x="530" y="350" as="targetPoint" />
          </mxGeometry>
        </mxCell>
        <mxCell id="DHKdyEClvsmOkn8ntHSH-36" value="" style="endArrow=classic;html=1;rounded=0;exitX=0.5;exitY=1;exitDx=0;exitDy=0;entryX=0.45;entryY=0;entryDx=0;entryDy=0;entryPerimeter=0;" parent="1" source="DHKdyEClvsmOkn8ntHSH-4" target="DHKdyEClvsmOkn8ntHSH-6" edge="1">
          <mxGeometry width="50" height="50" relative="1" as="geometry">
            <mxPoint x="480" y="400" as="sourcePoint" />
            <mxPoint x="530" y="350" as="targetPoint" />
          </mxGeometry>
        </mxCell>
        <mxCell id="DHKdyEClvsmOkn8ntHSH-37" value="" style="endArrow=classic;html=1;rounded=0;exitX=0.5;exitY=1;exitDx=0;exitDy=0;entryX=0.5;entryY=0;entryDx=0;entryDy=0;" parent="1" source="DHKdyEClvsmOkn8ntHSH-6" target="DHKdyEClvsmOkn8ntHSH-9" edge="1">
          <mxGeometry width="50" height="50" relative="1" as="geometry">
            <mxPoint x="480" y="400" as="sourcePoint" />
            <mxPoint x="530" y="350" as="targetPoint" />
          </mxGeometry>
        </mxCell>
        <mxCell id="DHKdyEClvsmOkn8ntHSH-38" value="" style="endArrow=classic;html=1;rounded=0;exitX=0.5;exitY=1;exitDx=0;exitDy=0;entryX=0.5;entryY=0;entryDx=0;entryDy=0;" parent="1" source="DHKdyEClvsmOkn8ntHSH-9" target="DHKdyEClvsmOkn8ntHSH-27" edge="1">
          <mxGeometry width="50" height="50" relative="1" as="geometry">
            <mxPoint x="480" y="640" as="sourcePoint" />
            <mxPoint x="530" y="590" as="targetPoint" />
          </mxGeometry>
        </mxCell>
        <mxCell id="DHKdyEClvsmOkn8ntHSH-39" value="" style="endArrow=classic;html=1;rounded=0;exitX=0.442;exitY=1.017;exitDx=0;exitDy=0;exitPerimeter=0;entryX=0.5;entryY=0;entryDx=0;entryDy=0;" parent="1" source="DHKdyEClvsmOkn8ntHSH-27" target="DHKdyEClvsmOkn8ntHSH-26" edge="1">
          <mxGeometry width="50" height="50" relative="1" as="geometry">
            <mxPoint x="480" y="760" as="sourcePoint" />
            <mxPoint x="530" y="710" as="targetPoint" />
          </mxGeometry>
        </mxCell>
        <mxCell id="DHKdyEClvsmOkn8ntHSH-40" value="" style="endArrow=classic;html=1;rounded=0;exitX=0.5;exitY=1;exitDx=0;exitDy=0;entryX=0.5;entryY=0;entryDx=0;entryDy=0;" parent="1" source="DHKdyEClvsmOkn8ntHSH-26" target="DHKdyEClvsmOkn8ntHSH-24" edge="1">
          <mxGeometry width="50" height="50" relative="1" as="geometry">
            <mxPoint x="480" y="760" as="sourcePoint" />
            <mxPoint x="530" y="710" as="targetPoint" />
          </mxGeometry>
        </mxCell>
        <mxCell id="DHKdyEClvsmOkn8ntHSH-41" value="" style="endArrow=classic;html=1;rounded=0;exitX=0.457;exitY=1;exitDx=0;exitDy=0;exitPerimeter=0;entryX=0.416;entryY=0;entryDx=0;entryDy=0;entryPerimeter=0;" parent="1" source="DHKdyEClvsmOkn8ntHSH-24" target="DHKdyEClvsmOkn8ntHSH-25" edge="1">
          <mxGeometry width="50" height="50" relative="1" as="geometry">
            <mxPoint x="480" y="1000" as="sourcePoint" />
            <mxPoint x="410" y="870" as="targetPoint" />
          </mxGeometry>
        </mxCell>
        <mxCell id="DHKdyEClvsmOkn8ntHSH-42" value="" style="endArrow=classic;html=1;rounded=0;exitX=0.461;exitY=0.967;exitDx=0;exitDy=0;exitPerimeter=0;entryX=0.455;entryY=-0.017;entryDx=0;entryDy=0;entryPerimeter=0;" parent="1" source="DHKdyEClvsmOkn8ntHSH-25" target="DHKdyEClvsmOkn8ntHSH-29" edge="1">
          <mxGeometry width="50" height="50" relative="1" as="geometry">
            <mxPoint x="480" y="1000" as="sourcePoint" />
            <mxPoint x="530" y="950" as="targetPoint" />
          </mxGeometry>
        </mxCell>
        <mxCell id="DHKdyEClvsmOkn8ntHSH-43" value="" style="endArrow=classic;html=1;rounded=0;exitX=0.5;exitY=1;exitDx=0;exitDy=0;entryX=0.5;entryY=0;entryDx=0;entryDy=0;" parent="1" source="DHKdyEClvsmOkn8ntHSH-29" target="DHKdyEClvsmOkn8ntHSH-30" edge="1">
          <mxGeometry width="50" height="50" relative="1" as="geometry">
            <mxPoint x="480" y="1000" as="sourcePoint" />
            <mxPoint x="530" y="950" as="targetPoint" />
          </mxGeometry>
        </mxCell>
      </root>
    </mxGraphModel>
  </diagram>
</mxfile>
